<?xml version="1.0" standalone="no"?>
<!DOCTYPE svg PUBLIC "-//W3C//DTD SVG 20010904//EN"
 "http://www.w3.org/TR/2001/REC-SVG-20010904/DTD/svg10.dtd">
<svg version="1.0" xmlns="http://www.w3.org/2000/svg"
 width="512.000000pt" height="512.000000pt" viewBox="0 0 512.000000 512.000000"
 preserveAspectRatio="xMidYMid meet">
<metadata>
Created by potrace 1.11, written by Peter Selinger 2001-2013
</metadata>
<g transform="translate(0.000000,512.000000) scale(0.100000,-0.100000)"
fill="#000000" stroke="none">
<path d="M2780 4145 c-87 -15 -180 -38 -265 -67 -87 -29 -255 -109 -255 -121
0 -12 286 -396 306 -412 8 -5 65 -80 129 -165 64 -85 119 -156 123 -158 5 -1
20 93 35 210 15 117 40 314 56 438 17 124 30 240 30 258 1 31 0 32 -41 31 -24
-1 -77 -7 -118 -14z"/>
<path d="M3141 4128 c0 -18 13 -134 30 -258 16 -124 41 -321 56 -438 15 -117
30 -211 35 -210 4 2 59 73 123 158 64 85 121 160 129 165 19 15 306 400 306
412 0 11 -143 80 -230 112 -125 45 -334 91 -417 91 -31 0 -33 -2 -32 -32z"/>
<path d="M2129 3881 c-46 -32 -116 -88 -155 -125 l-72 -66 -236 0 -236 0 -30
-42 c-17 -23 -29 -46 -27 -52 3 -10 547 -248 712 -311 39 -15 166 -68 283
-118 117 -49 214 -88 216 -86 2 2 -34 92 -80 199 -46 107 -84 199 -84 205 0
18 -188 449 -197 452 -5 2 -47 -23 -94 -56z"/>
<path d="M3841 3918 c-5 -13 -48 -113 -95 -223 -47 -109 -86 -204 -86 -210 0
-6 -38 -98 -84 -205 -46 -107 -82 -197 -80 -199 2 -2 99 37 216 86 117 50 245
103 283 118 165 63 709 301 712 311 2 6 -10 29 -27 52 l-30 42 -236 0 -236 0
-72 66 c-69 64 -231 184 -248 184 -5 0 -12 -10 -17 -22z"/>
<path d="M0 2565 l0 -1125 80 0 80 0 0 -140 0 -140 320 0 320 0 0 139 0 139
138 4 138 3 72 53 c40 30 72 58 72 62 0 5 -18 44 -39 87 -146 293 -212 581
-212 918 0 244 32 446 106 664 33 98 107 271 131 306 8 11 14 25 14 31 0 7
-32 36 -72 66 l-72 53 -538 3 -538 3 0 -1126z"/>
<path d="M1165 3681 c3 -5 26 -17 50 -27 44 -16 46 -16 60 2 23 31 18 34 -51
34 -37 0 -63 -4 -59 -9z"/>
<path d="M4790 3683 c0 -5 7 -17 15 -27 14 -18 16 -18 60 -2 67 26 64 36 -9
36 -36 0 -66 -3 -66 -7z"/>
<path d="M5010 3683 c-29 -11 -150 -105 -150 -117 0 -6 6 -20 14 -31 24 -36
98 -208 132 -309 58 -170 98 -386 107 -571 2 -33 4 186 5 488 l2 547 -47 -1
c-27 0 -55 -3 -63 -6z"/>
<path d="M1260 3398 c-124 -266 -180 -523 -180 -833 0 -242 25 -403 96 -620
35 -107 127 -315 138 -315 13 0 1046 785 1049 796 1 5 -113 22 -253 40 -140
17 -375 47 -523 65 l-267 34 247 31 c137 17 365 46 508 63 143 18 268 35 278
39 13 5 -29 42 -187 162 -581 441 -846 640 -852 640 -3 0 -27 -46 -54 -102z"/>
<path d="M4440 3259 c-173 -131 -408 -310 -523 -397 -160 -121 -203 -159 -190
-164 10 -4 135 -21 278 -39 143 -17 371 -46 508 -63 l247 -31 -267 -34 c-148
-18 -383 -48 -523 -65 -140 -18 -254 -35 -253 -40 3 -11 1036 -796 1049 -796
11 0 103 208 138 315 71 217 96 378 96 620 0 242 -25 403 -96 620 -39 118
-127 315 -141 314 -4 0 -150 -108 -323 -240z"/>
<path d="M5110 2458 c-1 -146 -44 -377 -105 -557 -33 -98 -107 -271 -131 -306
-8 -11 -14 -25 -14 -31 0 -7 32 -36 71 -65 64 -47 78 -53 130 -57 l59 -4 0
546 c0 300 -2 546 -5 546 -3 0 -5 -33 -5 -72z"/>
<path d="M2358 1960 c-125 -54 -291 -124 -370 -156 -274 -111 -611 -259 -615
-270 -2 -6 10 -29 27 -52 l30 -42 236 0 236 0 75 -69 c93 -86 240 -188 252
-175 4 5 30 61 56 124 26 63 106 254 177 423 72 169 129 309 127 311 -2 2
-106 -40 -231 -94z"/>
<path d="M3490 2053 c0 -5 43 -110 96 -233 52 -124 131 -313 176 -420 44 -107
84 -199 89 -204 12 -13 159 89 252 175 l75 69 71 0 71 0 0 -140 0 -140 47 0
c46 0 50 3 110 65 109 114 243 299 227 315 -9 9 -485 215 -589 255 -59 22
-603 253 -617 262 -5 2 -8 0 -8 -4z"/>
<path d="M2803 1897 c-11 -12 -110 -141 -219 -286 -110 -145 -227 -301 -261
-345 -34 -45 -63 -86 -63 -92 0 -11 139 -80 230 -113 140 -51 427 -107 447
-88 6 6 -104 937 -111 944 -2 2 -12 -7 -23 -20z"/>
<path d="M3242 1837 c-68 -536 -105 -858 -99 -864 20 -19 307 37 447 88 91 33
230 102 230 113 0 6 -29 47 -63 92 -34 44 -157 207 -274 361 -116 155 -216
284 -221 287 -5 3 -14 -31 -20 -77z"/>
<path d="M1200 1467 l-45 -22 64 -3 c35 -2 65 -1 68 2 7 6 -20 46 -32 46 -5 0
-30 -10 -55 -23z"/>
<path d="M4767 1417 c-26 -41 -79 -113 -117 -160 -39 -48 -70 -89 -70 -92 0
-3 86 -5 190 -5 l190 0 0 138 0 138 -65 27 c-36 15 -69 27 -73 27 -4 0 -28
-33 -55 -73z"/>
</g>
</svg>
